<svg width="33" height="24" viewBox="0 0 33 24" fill="none" xmlns="http://www.w3.org/2000/svg">
<path d="M32.3285 5.55352C32.2752 5.38008 32.1152 5.26446 31.9324 5.25L7.12325 2.97364C6.90997 2.95196 6.65099 2.82188 6.55197 2.63399C6.26251 2.1209 6.0797 1.83184 5.62267 1.28985C5.03615 0.610549 3.93165 0.632229 1.90548 0.617776C1.21993 0.61055 0.663879 0.993557 0.663879 1.63672C0.663879 2.26543 1.18947 2.65567 1.85216 2.65567C2.51486 2.65567 3.47462 2.6918 3.83263 2.79297C4.19064 2.89414 4.48009 3.45059 4.58673 3.93477C4.58673 3.942 4.58673 3.94922 4.59435 3.95645C4.60958 4.04317 4.74669 4.69356 4.74669 4.70078L7.79357 19.9922C7.97638 21.04 8.34962 21.9072 8.89806 22.5721C9.5379 23.3525 10.3834 23.7428 11.4041 23.7428H29.4264C30.0053 23.7428 30.5004 23.3236 30.5233 22.7744C30.5537 22.1963 30.0662 21.7193 29.4569 21.7193H11.3889C11.2365 21.7193 11.0156 21.7193 10.7567 21.517C10.4901 21.3002 10.1244 20.8016 9.88068 19.6381L9.55314 17.9254C9.55314 17.9037 9.56075 17.8893 9.58361 17.882L30.7365 14.4856C30.9346 14.4566 31.0869 14.3049 31.1098 14.1098L32.3285 5.74141C32.3438 5.6836 32.3438 5.61856 32.3285 5.55352Z" fill="black"/>
</svg>
