<svg width="26" height="22" viewBox="0 0 26 22" fill="none" xmlns="http://www.w3.org/2000/svg">
<path d="M0.486328 10.8145C0.486328 11.0742 0.595703 11.3066 0.800781 11.498L10.002 20.7266C10.207 20.918 10.4258 21.0137 10.6719 21.0137C11.1914 21.0137 11.5879 20.6309 11.5879 20.1113C11.5879 19.8652 11.4922 19.6191 11.3418 19.4551L7.24023 15.3262L3.20703 11.5801L6.37891 11.7305H24.9727C25.4922 11.7305 25.875 11.3477 25.875 10.8145C25.875 10.2812 25.4922 9.89844 24.9727 9.89844H6.37891L3.20703 10.0488L7.24023 6.30273L11.3418 2.17383C11.5059 1.99609 11.5879 1.76367 11.5879 1.51758C11.5879 0.998047 11.1914 0.615234 10.6719 0.615234C10.4258 0.615234 10.1934 0.710938 9.93359 0.970703L0.800781 10.1309C0.595703 10.3223 0.486328 10.5547 0.486328 10.8145Z" fill="black"/>
</svg>
