<svg width="20" height="26" viewBox="0 0 20 26" fill="none" xmlns="http://www.w3.org/2000/svg">
<path d="M9.99961 0C5.02458 0 0.977173 4.048 0.977173 9.02316C0.977173 13.8122 9.16339 25.001 9.51195 25.4748L9.83725 25.9175C9.8753 25.9696 9.93587 26 9.99961 26C10.0643 26 10.1245 25.9696 10.163 25.9175L10.4881 25.4748C10.8368 25.001 19.0228 13.8122 19.0228 9.02316C19.0228 4.048 14.9748 0 9.99961 0ZM9.99961 5.79108C11.7822 5.79108 13.2317 7.24066 13.2317 9.02316C13.2317 10.8047 11.7821 12.2552 9.99961 12.2552C8.21809 12.2552 6.76753 10.8047 6.76753 9.02316C6.76753 7.24066 8.21803 5.79108 9.99961 5.79108Z" fill="black"/>
</svg>
