<svg width="237" height="209" viewBox="0 0 237 209" fill="none" xmlns="http://www.w3.org/2000/svg">
<path opacity="0.32" d="M38.74 66.2849C40.189 65.9013 41.5954 65.3045 42.8739 64.5372C41.5954 63.7273 40.189 63.1305 38.74 62.7469C37.2483 62.3633 36.0976 61.2123 35.7141 59.7204C35.3305 58.2711 34.7765 56.8644 33.9667 55.5856C33.157 56.8644 32.5603 58.2711 32.2194 59.7204C31.8358 61.2123 30.6851 62.3633 29.1935 62.7469C27.7445 63.1305 26.3381 63.7273 25.0595 64.4946C26.3381 65.3045 27.7445 65.9013 29.1935 66.2423C30.6851 66.626 31.8358 67.7769 32.2194 69.2688C32.6029 70.7181 33.1996 72.1248 33.9667 73.4036C34.7765 72.1248 35.3731 70.7181 35.7567 69.2688C36.1403 67.8195 37.2483 66.6686 38.74 66.2849Z" fill="#F7C689"/>
<path opacity="0.32" d="M41.0413 81.4175C42.2653 81.4175 43.2575 80.4251 43.2575 79.2009C43.2575 77.9767 42.2653 76.9843 41.0413 76.9843C39.8174 76.9843 38.8252 77.9767 38.8252 79.2009C38.8252 80.4251 39.8174 81.4175 41.0413 81.4175Z" fill="#F7C689"/>
<path d="M86.9412 83.2079C89.1147 89.1756 89.8393 98.0847 89.4131 104.436C88.9017 112.109 86.3872 119.697 81.5287 125.707C74.8803 133.891 63.5012 138.495 53.358 135.639C43.2149 132.783 35.5862 121.7 38.0581 111.427C39.3366 106.141 42.7887 101.708 46.1982 97.4453C53.145 88.7494 61.4981 71.656 74.6672 73.361C80.2501 74.1709 84.9382 77.9221 86.9412 83.2079Z" fill="#4B4065"/>
<path d="M79.3125 118.332L77.6078 100.344L73.3033 100.259V100.344H69.0841L66.9958 118.29L73.4312 118.546V118.46L79.3125 118.332Z" fill="#FBD7AD"/>
<path d="M77.6078 100.344L73.3034 100.259V100.344H69.0842L68.7858 103.029C70.1922 104.777 72.2805 105.757 74.4967 105.757H75.3064C76.244 105.757 77.1816 105.587 78.0766 105.203L77.6078 100.344Z" fill="#F27932"/>
<path d="M71.0872 80.8207C63.9273 80.7781 64.5666 89.9429 64.5666 89.9429C64.5666 93.3957 64.6092 97.1042 66.868 99.6618C68.0187 100.983 70.6184 103.37 73.0903 103.37H73.9C76.3292 103.37 78.2471 101.367 79.2273 100.216C81.4861 97.6157 81.9975 93.5235 81.9975 90.1134C81.9975 90.1134 81.5287 80.1387 75.0933 80.7781L71.0872 80.8207Z" fill="#FBD7AD"/>
<path d="M100.92 125.622C100.281 120.89 97.0417 116.926 92.5668 115.263L79.2273 110.404H67.0385L53.7842 115.263C49.3093 116.883 46.1129 120.89 45.431 125.579L38.5269 149.621C37.3762 153.585 39.294 157.848 43.0444 159.595L70.3201 172.256H73.5165L100.579 160.277C104.116 158.7 106.119 154.949 105.438 151.155L100.92 125.622Z" fill="#B9C6E4"/>
<path d="M51.5681 137.6H94.7829C97.3827 137.6 99.5136 139.731 99.5136 142.331V173.833H46.8374V142.331C46.8374 139.731 48.9257 137.6 51.5681 137.6Z" fill="white"/>
<path d="M124.488 149.876C121.547 147.447 117.456 147.106 114.174 149.024L66.6975 176.731C66.6123 180.568 66.868 184.447 67.5499 188.241L105.523 179.119C115.027 176.817 122.911 170.167 126.747 161.173L127.088 160.363C128.622 156.697 127.599 152.434 124.488 149.876Z" fill="#495894"/>
<path opacity="0.38" d="M118.479 172.469L97.2122 176.007L95.2518 175.239C93.6323 174.6 91.8423 174.472 90.1376 174.813L86.7281 175.495L76.6702 170.891L71.5134 173.918L76.4997 180.781L87.9214 183.339L105.523 179.118C110.296 177.968 114.771 175.708 118.479 172.469Z" fill="#4B4065"/>
<path d="M67.5073 188.241C66.8254 184.447 66.5697 180.568 66.6549 176.731L62.0095 179.417L58.5574 178.266C56.9806 177.754 55.2758 177.84 53.7842 178.564L51.9516 179.417L31.1113 176.007C29.4066 175.751 27.7871 176.902 27.4888 178.65C27.4035 179.289 27.4888 179.928 27.7445 180.525L31.2392 187.942C31.7506 189.051 32.8586 189.733 34.0946 189.733H61.3276L67.5073 188.241Z" fill="#FBD7AD"/>
<path d="M31.1966 176.007L52.0369 179.417L53.8695 178.564C55.3611 177.882 57.0658 177.754 58.6427 178.266L61.2424 179.118L58.7706 189.733H34.1798C32.9439 189.733 31.8358 189.008 31.3244 187.942L27.8297 180.483C27.1052 178.905 27.7871 177.03 29.364 176.262C29.918 176.007 30.5573 175.921 31.1966 176.007Z" fill="#EF749B"/>
<path d="M57.0232 182.358C58.387 182.358 58.387 180.227 57.0232 180.227C55.6594 180.227 55.6594 182.358 57.0232 182.358Z" fill="white"/>
<path d="M51.7812 186.877C53.145 186.877 53.145 184.745 51.7812 184.745C50.4174 184.745 50.4174 186.877 51.7812 186.877Z" fill="white"/>
<path d="M43.3001 183.594C44.6639 183.594 44.6639 181.463 43.3001 181.463C41.9363 181.463 41.8937 183.594 43.3001 183.594Z" fill="white"/>
<path d="M43.6411 179.246C45.0048 179.246 45.0048 177.115 43.6411 177.115C42.2773 177.115 42.2773 179.246 43.6411 179.246Z" fill="white"/>
<path d="M49.0536 182.145C50.4174 182.145 50.4174 180.014 49.0536 180.014C47.6898 180.014 47.6898 182.145 49.0536 182.145Z" fill="white"/>
<path d="M39.294 187.388C40.6578 187.388 40.6578 185.257 39.294 185.257C37.9302 185.257 37.9302 187.388 39.294 187.388Z" fill="white"/>
<path d="M45.9851 189.562C47.3489 189.562 47.3489 187.431 45.9851 187.431C44.6213 187.431 44.6213 189.562 45.9851 189.562Z" fill="white"/>
<path d="M31.5375 189.392C32.9013 189.392 32.9013 187.26 31.5375 187.26C30.1737 187.26 30.1737 189.392 31.5375 189.392Z" fill="white"/>
<path d="M31.367 182.529C32.7308 182.529 32.7308 180.397 31.367 180.397C30.0032 180.397 30.0032 182.529 31.367 182.529Z" fill="white"/>
<path d="M35.7141 182.358C37.0779 182.358 37.0779 180.227 35.7141 180.227C34.3503 180.227 34.3077 182.358 35.7141 182.358Z" fill="white"/>
<path d="M32.0915 177.456C33.4553 177.456 33.4553 175.325 32.0915 175.325C30.7277 175.325 30.7277 177.456 32.0915 177.456Z" fill="white"/>
<path d="M79.7813 188.241C80.4632 184.447 80.7616 180.568 80.6337 176.731L85.2791 179.417L88.7312 178.266C90.308 177.754 92.0128 177.84 93.5044 178.564L95.337 179.417L116.177 176.007C117.882 175.708 119.544 176.902 119.8 178.607C119.885 179.246 119.8 179.886 119.544 180.44L116.049 187.857C115.538 188.965 114.43 189.647 113.194 189.647H86.0462L79.7813 188.241Z" fill="#FBD7AD"/>
<path opacity="0.27" d="M82.3384 177.712L84.0858 189.264L79.7813 188.241L80.6763 176.731L82.3384 177.712Z" fill="#F27932"/>
<path d="M22.8434 149.876C25.784 147.447 29.8754 147.106 33.157 149.024L80.6337 176.731C80.7189 180.568 80.4632 184.447 79.7813 188.241L41.8085 179.119C32.3046 176.817 24.4203 170.167 20.5846 161.173L20.2437 160.363C18.7094 156.697 19.7749 152.434 22.8434 149.876Z" fill="#495894"/>
<path d="M81.9549 90.156C82.168 89.133 83.1482 88.4936 84.1284 88.7067C84.4267 88.7493 84.6824 88.8772 84.9382 89.0903C85.7479 89.7297 85.8331 90.9233 85.5774 91.9037C85.1939 93.2678 84.2136 94.3761 82.9351 94.9729C82.5942 95.1434 82.2106 95.2286 81.827 95.186C81.4435 95.1434 81.1025 94.9302 80.932 94.5892" fill="#FBD7AD"/>
<path d="M64.6945 90.156C64.4814 89.133 63.5012 88.4936 62.521 88.7067C62.2226 88.7493 61.9669 88.8772 61.7112 89.0903C60.9441 89.7297 60.8162 90.9233 61.072 91.9037C61.4555 93.2678 62.4357 94.3761 63.7143 94.9729C64.0552 95.1434 64.4388 95.2286 64.8224 95.186C65.2059 95.1434 65.5469 94.9302 65.7173 94.5892" fill="#FBD7AD"/>
<path d="M73.1755 158.146C75.3174 158.146 77.0538 156.409 77.0538 154.267C77.0538 152.125 75.3174 150.388 73.1755 150.388C71.0336 150.388 69.2972 152.125 69.2972 154.267C69.2972 156.409 71.0336 158.146 73.1755 158.146Z" fill="white" stroke="#B9C6E4" stroke-miterlimit="10"/>
<path d="M53.1875 74.2988C52.3778 75.4497 51.6107 76.7285 51.3976 78.1352C51.1845 79.5419 51.568 81.1191 52.7187 81.9716C54.3382 83.2078 56.7249 82.4832 58.3443 81.247C60.6031 79.4566 63.3733 74.8103 61.4981 71.9117C59.1541 68.2884 54.807 71.9969 53.1875 74.2988Z" fill="#4B4065"/>
<path d="M89.2852 74.2988C90.095 75.4497 90.8621 76.7285 91.0752 78.1352C91.2883 79.5419 90.9047 81.1191 89.754 81.9716C88.1345 83.2078 85.7479 82.4832 84.1284 81.247C81.8696 79.4566 79.0995 74.8103 80.9747 71.9117C83.3187 68.2884 87.6657 71.9969 89.2852 74.2988Z" fill="#4B4065"/>
<path d="M85.7053 87.3853C81.7844 88.2378 76.9259 89.9002 73.9426 87.1721C71.3855 84.8276 69.6808 81.6732 69.212 78.2631C75.8605 77.6663 82.4237 81.588 85.7053 87.3853Z" fill="#4B4065"/>
<path d="M70.8315 95.7402C72.3231 96.6353 74.241 96.5501 75.69 95.5697C75.9031 95.3992 75.69 95.0581 75.4769 95.186C74.1557 96.1238 72.451 96.1664 71.0872 95.3565C71.002 95.3139 70.8741 95.3139 70.7889 95.4418C70.7037 95.5697 70.7463 95.6975 70.8315 95.7402Z" fill="#4B4065"/>
<path d="M71.1298 91.4348C70.3627 90.6249 69.3399 90.1134 68.2318 89.9429C67.0811 89.7297 66.314 89.7297 65.2911 90.156C65.6321 91.179 66.0583 92.0316 67.5925 92.1595C68.8285 92.2873 70.0644 92.0316 71.1298 91.4348Z" fill="white"/>
<path d="M65.3337 90.156C67.2942 89.3887 69.5529 89.9002 71.002 91.4774" stroke="#4B4065" stroke-miterlimit="10"/>
<path d="M70.1496 88.2805C68.7432 87.3427 66.9106 87.4705 65.6747 88.6215C67.209 88.451 68.6154 88.4083 70.1496 88.2805Z" fill="#4B4065" stroke="#4B4065" stroke-linecap="round" stroke-linejoin="round"/>
<path d="M75.4769 91.3922C76.244 90.5823 77.2669 90.0708 78.3323 89.9003C79.483 89.6871 80.2501 89.6871 81.273 90.1134C81.1451 91.1364 80.5058 91.989 78.9716 92.1169C77.7783 92.2447 76.5424 91.989 75.4769 91.3922Z" fill="white"/>
<path d="M81.273 90.1134C79.3125 89.3461 77.0538 89.8576 75.6047 91.3922" stroke="#4B4065" stroke-miterlimit="10"/>
<path d="M73.3886 91.0938C73.9853 91.2217 74.3688 91.7758 74.241 92.3726C74.1557 92.7136 73.9427 93.012 73.6443 93.1399" stroke="#4B4065" stroke-miterlimit="10" stroke-linecap="round" stroke-linejoin="round"/>
<path opacity="0.21" d="M67.6351 97.36C68.9297 97.36 69.9791 96.3103 69.9791 95.0155C69.9791 93.7207 68.9297 92.671 67.6351 92.671C66.3406 92.671 65.2911 93.7207 65.2911 95.0155C65.2911 96.3103 66.3406 97.36 67.6351 97.36Z" fill="#EF749B"/>
<path opacity="0.21" d="M78.9716 97.36C80.2662 97.36 81.3156 96.3103 81.3156 95.0155C81.3156 93.7207 80.2662 92.671 78.9716 92.671C77.677 92.671 76.6276 93.7207 76.6276 95.0155C76.6276 96.3103 77.677 97.36 78.9716 97.36Z" fill="#EF749B"/>
<path d="M80.6337 91.4775C79.824 90.4544 78.3323 90.2839 77.3521 91.0938C77.0964 91.307 76.8407 91.5627 76.7128 91.9037C77.4373 92.1169 78.1619 92.2021 78.8864 92.1595L79.6535 92.0316C79.9944 91.9464 80.3354 91.7332 80.6337 91.4775Z" fill="#4B4065"/>
<path d="M66.1861 91.5627C66.9959 90.5397 68.4875 90.3692 69.4677 91.1791C69.7234 91.3922 69.9791 91.648 70.107 91.989C69.3825 92.2021 68.658 92.2874 67.9335 92.2448C67.4221 92.2021 66.3992 91.9464 66.1861 91.5627Z" fill="#4B4065"/>
<path d="M96.2746 112.663V24.4253C96.2746 20.3331 99.5988 17.0082 103.69 17.0082H204.397C208.488 17.0082 211.813 20.3331 211.813 24.4253V86.5754C211.813 90.6676 208.488 93.9925 204.397 93.9925H118.607L98.8743 113.729C98.2777 114.326 97.3401 114.326 96.7434 113.729C96.4451 113.473 96.2746 113.047 96.2746 112.663Z" fill="white" stroke="#B9C6E4" stroke-miterlimit="10"/>
<path d="M152.786 31.3735L154.065 33.2064C154.15 33.2917 154.235 33.3769 154.321 33.3769L156.452 34.059C156.707 34.1442 156.878 34.4426 156.792 34.6984C156.792 34.741 156.75 34.7836 156.707 34.8689L155.386 36.6592C155.301 36.7445 155.301 36.8723 155.301 36.9576L155.343 39.1742C155.343 39.4726 155.13 39.6857 154.832 39.6857C154.789 39.6857 154.704 39.6857 154.662 39.6431L152.531 38.9611C152.445 38.9184 152.318 38.9184 152.19 38.9611L150.059 39.6857C149.803 39.771 149.505 39.6431 149.42 39.3873C149.42 39.3447 149.377 39.2595 149.377 39.2168L149.42 37.0002C149.42 36.8724 149.377 36.7871 149.334 36.7018L148.013 34.9115C147.843 34.6984 147.885 34.3574 148.098 34.1869C148.141 34.1442 148.184 34.1442 148.269 34.1016L150.4 33.4196C150.528 33.3769 150.613 33.3343 150.655 33.2491L151.934 31.4161C152.104 31.1603 152.403 31.1177 152.659 31.2882C152.701 31.2882 152.744 31.3308 152.786 31.3735Z" fill="#F7C689"/>
<path d="M165.529 31.3734L166.808 33.2064C166.85 33.2916 166.978 33.3769 167.063 33.3769L169.194 34.0589C169.45 34.1442 169.621 34.4426 169.535 34.6983C169.535 34.741 169.493 34.7836 169.45 34.8688L168.129 36.6592C168.044 36.7444 168.044 36.8723 168.044 36.9576L168.086 39.1742C168.086 39.4726 167.873 39.6857 167.575 39.6857C167.532 39.6857 167.447 39.6857 167.404 39.6431L165.316 38.961C165.231 38.9184 165.103 38.9184 164.975 38.961L162.844 39.6857C162.589 39.7709 162.29 39.6431 162.205 39.3873C162.205 39.3447 162.162 39.2594 162.162 39.2168L162.205 37.0002C162.205 36.8723 162.162 36.7871 162.12 36.7018L160.799 34.9115C160.628 34.6983 160.671 34.3573 160.884 34.1868C160.926 34.1442 160.969 34.1442 161.054 34.1016L163.185 33.4195C163.313 33.3769 163.398 33.3343 163.441 33.249L164.719 31.4161C164.847 31.1603 165.188 31.1177 165.401 31.2456C165.401 31.2456 165.487 31.2882 165.529 31.3734Z" fill="#F7C689"/>
<path d="M178.229 31.3734L179.508 33.2064C179.551 33.2916 179.678 33.3769 179.764 33.3769L181.895 34.0589C182.15 34.1442 182.321 34.4426 182.236 34.6983C182.236 34.741 182.193 34.8262 182.15 34.8688L180.829 36.6592C180.744 36.7444 180.744 36.8723 180.744 36.9576L180.787 39.1742C180.787 39.4726 180.573 39.6857 180.275 39.6857C180.233 39.6857 180.147 39.6857 180.105 39.6431L177.974 38.9184C177.889 38.8758 177.761 38.8758 177.633 38.9184L175.545 39.6431C175.289 39.7283 174.99 39.6004 174.905 39.3447C174.905 39.302 174.863 39.2168 174.863 39.1742L174.905 36.9576C174.905 36.8297 174.863 36.7444 174.82 36.6592L173.499 34.8688C173.328 34.6557 173.371 34.3147 173.627 34.1442C173.669 34.1016 173.712 34.1016 173.797 34.0589L175.928 33.3769C176.056 33.3343 176.141 33.2916 176.184 33.2064L177.462 31.3734C177.633 31.1603 177.931 31.075 178.187 31.2456C178.144 31.2882 178.187 31.3308 178.229 31.3734Z" fill="#F7C689"/>
<path d="M147.928 49.4047H191.91" stroke="#B9C6E4" stroke-width="4" stroke-miterlimit="10"/>
<path d="M147.928 56.0544H191.91" stroke="#B9C6E4" stroke-width="4" stroke-miterlimit="10"/>
<path d="M147.928 62.7469H171.411" stroke="#B9C6E4" stroke-width="4" stroke-miterlimit="10"/>
<path opacity="0.45" d="M138.622 46.8671C139.821 39.4773 134.803 32.5144 127.415 31.315C120.027 30.1157 113.065 35.1341 111.866 42.524C110.667 49.9138 115.684 56.8767 123.073 58.0761C130.461 59.2754 137.423 54.257 138.622 46.8671Z" fill="#B9C6E4"/>
<path opacity="0.22" d="M46.8374 151.965L73.1755 170.423L99.5136 151.965L99.471 160.533L73.1755 175.453L46.5817 159.041L46.8374 151.965Z" fill="#495894"/>
<path d="M116.135 176.007L95.2944 179.374L93.4618 178.522C91.9702 177.84 90.2654 177.712 88.6886 178.223L86.0888 179.118L88.5607 189.69H113.151C114.387 189.69 115.495 188.965 116.007 187.9L119.502 180.483C120.226 178.905 119.544 177.03 117.967 176.262C117.456 176.007 116.817 175.921 116.135 176.007Z" fill="#EF749B"/>
<path d="M90.3081 182.358C91.6718 182.358 91.6718 180.227 90.3081 180.227C88.9443 180.227 88.9443 182.358 90.3081 182.358Z" fill="white"/>
<path d="M95.5501 186.877C96.9139 186.877 96.9139 184.745 95.5501 184.745C94.1863 184.745 94.1863 186.877 95.5501 186.877Z" fill="white"/>
<path d="M104.031 183.594C105.395 183.594 105.395 181.463 104.031 181.463C102.667 181.463 102.667 183.594 104.031 183.594Z" fill="white"/>
<path d="M103.69 179.246C105.054 179.246 105.054 177.115 103.69 177.115C102.326 177.115 102.326 179.246 103.69 179.246Z" fill="white"/>
<path d="M98.2777 182.145C99.6414 182.145 99.6414 180.014 98.2777 180.014C96.9139 180.014 96.9139 182.145 98.2777 182.145Z" fill="white"/>
<path d="M108.037 187.388C109.401 187.388 109.401 185.257 108.037 185.257C106.673 185.257 106.673 187.388 108.037 187.388Z" fill="white"/>
<path d="M101.346 189.562C102.71 189.562 102.71 187.431 101.346 187.431C99.9824 187.431 99.9824 189.562 101.346 189.562Z" fill="white"/>
<path d="M115.794 189.392C117.158 189.392 117.158 187.26 115.794 187.26C114.43 187.26 114.43 189.392 115.794 189.392Z" fill="white"/>
<path d="M115.964 182.529C117.328 182.529 117.328 180.397 115.964 180.397C114.6 180.397 114.6 182.529 115.964 182.529Z" fill="white"/>
<path d="M111.66 182.358C113.024 182.358 113.024 180.227 111.66 180.227C110.296 180.227 110.253 182.358 111.66 182.358Z" fill="white"/>
<path d="M115.24 177.456C116.603 177.456 116.603 175.325 115.24 175.325C113.876 175.325 113.876 177.456 115.24 177.456Z" fill="white"/>
</svg>
