<svg width="244" height="166" viewBox="0 0 244 166" fill="none" xmlns="http://www.w3.org/2000/svg">
<path d="M53.921 59.2308C56.1332 59.2308 57.9265 57.4399 57.9265 55.2308C57.9265 53.0216 56.1332 51.2308 53.921 51.2308C51.7088 51.2308 49.9154 53.0216 49.9154 55.2308C49.9154 57.4399 51.7088 59.2308 53.921 59.2308Z" fill="#F7C689"/>
<path d="M229.919 82.9231C231.042 82.9231 231.953 82.0139 231.953 80.8923C231.953 79.7707 231.042 78.8615 229.919 78.8615C228.796 78.8615 227.885 79.7707 227.885 80.8923C227.885 82.0139 228.796 82.9231 229.919 82.9231Z" stroke="#4B4065" stroke-width="2" stroke-miterlimit="10"/>
<path d="M102.234 105.723C102.511 105.446 113.943 99.9077 113.943 99.9077L115.853 90.3692L128.332 90.8L129.225 100.092L143.276 106.338" fill="#F6A561"/>
<path d="M129.01 97.5692L128.363 90.8308L115.884 90.4L115.514 92.2769C116.808 93.9384 118.38 95.3846 120.136 96.5231C121.831 97.6 123.741 98.4308 125.744 98.4C126.884 98.3692 127.993 98.0923 129.01 97.5692Z" fill="#4B4065"/>
<path d="M120.845 64.6154C124.912 64 129.225 65.4769 132.214 68.2769C135.942 71.7538 136.651 76.5538 135.881 81.4462C135.419 84.4923 134.094 87.4769 131.844 89.6C128.887 92.4 124.419 93.4462 120.444 92.5231C116.469 91.6 113.049 88.7385 111.139 85.1385C109.968 82.8615 109.352 80.3385 109.29 77.7846C109.259 75.3846 109.752 73.8154 110.892 71.8154C113.049 68.0923 116.593 65.2615 120.845 64.6154Z" fill="#F6A561"/>
<path d="M111.447 77.8461C110.769 76.6154 109.013 76.1846 107.78 76.8615C106.517 77.5692 105.87 79.0154 106.178 80.4308C106.517 81.8154 107.565 82.9231 108.951 83.3231C110.307 83.7231 111.786 83.5077 113.018 82.8" fill="#F6A561"/>
<path d="M114.528 75.9385C117.363 74.0308 121.091 73.9385 123.987 75.7538C123.032 77.1692 121.461 78.0923 119.766 78.2154C118.102 78.3385 115.73 77.7231 114.528 75.9385Z" fill="white"/>
<path d="M134.926 71.6615C135.419 71.2 136.097 71.0769 136.713 71.3538C137.298 71.6308 137.76 72.0923 138.068 72.6769C139.363 75.1077 137.945 78.0615 135.449 78.9846" fill="#F6A561"/>
<path d="M114.651 76.1231C117.424 74.2461 121.029 74.1846 123.895 75.9384C124.141 76.0923 124.388 75.6923 124.141 75.5384C121.153 73.6923 117.363 73.7846 114.436 75.7231C114.189 75.9077 114.436 76.3077 114.651 76.1231Z" fill="#4B4065"/>
<path d="M117.394 74.7385C117.363 76.2461 118.565 77.4769 120.043 77.5077C121.368 77.5385 122.508 76.5846 122.755 75.2923C121.091 74.4923 119.212 74.3077 117.394 74.7385Z" fill="#4B4065"/>
<path d="M126.052 73.6615C126.73 73.6 127.284 74.1231 127.346 74.7692C127.377 75.0461 127.284 75.3231 127.13 75.5385C126.976 75.7846 127.377 76.0308 127.531 75.7846C128.055 75.0154 127.839 74 127.069 73.4769C126.76 73.2923 126.422 73.1692 126.052 73.2C125.744 73.2 125.744 73.6615 126.052 73.6615Z" fill="#4B4065"/>
<path d="M131.69 77.8461C129.78 77.3538 127.746 77.7231 126.113 78.8615C125.651 79.1692 125.251 79.5692 124.881 79.9692C124.696 80.1846 124.881 80.5846 125.189 80.4923C127.346 79.8154 129.534 79.1385 131.69 78.4615C132.06 78.3385 131.906 77.7538 131.536 77.8769C129.379 78.5538 127.192 79.2308 125.035 79.9077L125.343 80.4308C126.884 78.6461 129.287 77.8769 131.567 78.4615C131.721 78.4923 131.875 78.3692 131.906 78.1846C131.906 78.0308 131.844 77.9077 131.69 77.8461Z" fill="#ED4F2E"/>
<path d="M111.293 85.1385C111.847 84.4308 112.371 83.6615 112.957 82.9538C112.248 83.3231 111.447 83.5385 110.646 83.5692C110.738 84.1231 110.985 84.6462 111.293 85.1385Z" fill="#495894"/>
<path d="M110.923 76.9231C110.954 77.4154 111.755 77.5384 112.125 77.1692C112.495 76.8 112.495 76.2461 112.495 75.7538C112.495 75.2615 112.495 74.7077 112.803 74.3077C113.234 73.8154 113.974 73.7846 114.621 73.7538C118.441 73.5077 121.923 70.4 122.539 66.6154C123.618 68.4923 125.466 70.0923 127.562 70.5846C129.657 71.0769 131.752 70.4308 132.923 68.6154C130.396 66 127.007 64.3077 123.371 63.9077C119.674 63.4154 115.73 64.2769 112.803 66.6154C109.876 68.9538 108.181 72.8615 108.859 76.5231C109.567 76.6769 110.245 76.8 110.923 76.9231Z" fill="#4B4065"/>
<path d="M123.772 65.6308C123.833 63.1077 122.108 60.8308 119.951 59.5077C117.733 58.1231 115.021 57.6615 112.464 58.2769C109.968 58.9231 107.749 60.8308 106.918 63.2923C106.086 65.7538 106.733 68.7077 108.643 70.4308C110.553 72.1538 113.696 72.4923 115.853 71.0461" fill="#4B4065"/>
<path d="M109.105 65.0154C106.332 61.8769 102.45 59.5077 98.2594 59.3846C94.069 59.2615 89.6937 61.6308 88.2147 65.5385C86.9514 68.9538 88.0607 73.0154 90.6797 75.5077C93.2987 78 97.2426 78.9538 100.817 78.2461C104.391 77.5385 107.534 75.2308 109.629 72.2769" fill="#4B4065"/>
<path d="M134.279 70.7692C132.738 70.8615 131.351 71.6923 130.55 72.9846C131.167 73.8154 132.091 74.3692 133.108 74.4615C134.001 74.5231 134.895 74.2461 135.604 73.6615C135.265 72.3077 134.987 71.9385 134.279 70.7692Z" fill="white"/>
<path opacity="0.46" d="M56.6941 74H11.7702V118.862H56.6941V74Z" fill="#EF749B"/>
<path d="M56.694 94.5846L50.47 108.185C49.1143 111.169 50.2543 114.708 53.1198 116.308L56.6632 118.277L56.694 94.5846Z" fill="#EF749B"/>
<path d="M93.3912 76.7385C89.2007 74.9538 84.3632 76.9231 82.607 81.1077C80.8199 85.2923 82.7918 90.1231 86.9823 91.8769C87.7217 92.1846 88.5229 92.4 89.324 92.4923C91.6349 92.7077 93.915 92 95.7329 90.5538C97.52 89.1077 98.7832 87.0769 99.2762 84.8308C99.8925 82.0923 99.4611 79.2 98.0438 76.7692" fill="#4B4065"/>
<path d="M135.449 73.1385C134.802 73.8769 133.755 74.1231 132.861 73.7538C132.029 73.3231 131.629 72.3692 131.844 71.4769C132.646 71.1077 133.539 70.8923 134.402 70.8615C134.772 71.6 135.234 72.4 135.449 73.1385Z" fill="#4B4065"/>
<path d="M84.5789 99.5385C85.226 101.785 87.6293 103.2 89.971 103.323C91.9738 103.446 93.9457 102.677 95.3631 101.231C98.321 98.0308 96.3799 92.4308 92.0354 91.7538C88.2147 91.1692 83.4697 95.6615 84.5789 99.5385Z" fill="#4B4065"/>
<path d="M116.069 72.6462C116.007 72.6462 115.976 72.6154 115.945 72.5846C115.915 72.5231 115.915 72.4615 115.976 72.4C116.839 71.5692 118.01 71.1077 119.212 71.1077C120.043 71.1077 120.875 71.3231 121.584 71.7846C121.646 71.8154 121.676 71.9077 121.646 71.9692C121.615 72.0308 121.553 72.0615 121.492 72.0615H121.461C121.091 72 120.691 71.9692 120.321 71.9692C118.903 72 117.455 72.2154 116.069 72.6462C116.1 72.6154 116.069 72.6154 116.069 72.6462Z" fill="#4B4065"/>
<path d="M119.181 71.2308C119.982 71.2308 120.783 71.4461 121.461 71.8769C121.091 71.8154 120.69 71.7846 120.29 71.7846C118.842 71.8154 117.394 72.0615 116.038 72.4615C116.901 71.6615 118.01 71.2308 119.181 71.2308ZM119.181 70.9231C117.917 70.9231 116.716 71.3846 115.822 72.2461C115.73 72.3385 115.699 72.4923 115.761 72.6154C115.822 72.7077 115.915 72.7692 116.038 72.7692C116.069 72.7692 116.1 72.7692 116.13 72.7692C117.486 72.3384 118.903 72.1231 120.29 72.0923C120.66 72.0923 121.029 72.1231 121.399 72.1846H121.43C121.615 72.1846 121.738 72.0615 121.738 71.8769C121.738 71.7846 121.676 71.6615 121.584 71.6C120.906 71.1692 120.043 70.9231 119.181 70.9231Z" fill="#4B4065"/>
<path d="M84.1475 106.369L75.9515 102.185L84.1475 52.3077C84.1475 52.3077 74.4726 46.8 75.0888 35.4461C74.4109 35.1077 73.579 35.3846 73.2401 36.0615C73.2093 36.1231 73.1785 36.2154 73.1476 36.2769C72.3773 38.8615 70.9292 43.7846 71.0216 44.0615C71.5146 45.3846 75.8283 56.3692 75.8283 56.3692L54.568 102.923C53.2123 105.908 54.3523 109.446 57.2179 111.046L81.9599 124.769" fill="#F6A561"/>
<path d="M94.6544 55.1692C105.647 55.1692 114.559 46.27 114.559 35.2923C114.559 24.3146 105.647 15.4154 94.6544 15.4154C83.6614 15.4154 74.7499 24.3146 74.7499 35.2923C74.7499 46.27 83.6614 55.1692 94.6544 55.1692Z" fill="#F27932"/>
<path d="M114.528 53.9385C118.476 53.9385 121.677 50.7425 121.677 46.8C121.677 42.8575 118.476 39.6615 114.528 39.6615C110.58 39.6615 107.38 42.8575 107.38 46.8C107.38 50.7425 110.58 53.9385 114.528 53.9385Z" fill="white" stroke="#F7C689" stroke-miterlimit="10"/>
<path d="M72.7471 152.615H174.766C174.766 155.508 172.393 157.877 169.497 157.877H78.0159C75.1196 157.877 72.7471 155.508 72.7471 152.615Z" fill="white" stroke="#B9C6E4" stroke-miterlimit="10"/>
<path d="M193.592 55.2615V57.1077H191.743" stroke="#262D3D" stroke-miterlimit="10"/>
<path d="M188.261 57.1077H148.144" stroke="#262D3D" stroke-miterlimit="10" stroke-dasharray="11.32 11.32"/>
<path d="M146.419 57.1077H144.57V55.2615" stroke="#262D3D" stroke-miterlimit="10"/>
<path d="M144.57 51.7846V11.7538" stroke="#262D3D" stroke-miterlimit="10" stroke-dasharray="11.32 11.32"/>
<path d="M144.57 9.99999V8.15384H146.419" stroke="#262D3D" stroke-miterlimit="10"/>
<path d="M149.9 8.15384H189.987" stroke="#262D3D" stroke-miterlimit="10" stroke-dasharray="11.32 11.32"/>
<path d="M191.743 8.15384H193.592V9.99999" stroke="#262D3D" stroke-miterlimit="10"/>
<path d="M193.592 13.4769V53.5077" stroke="#262D3D" stroke-miterlimit="10" stroke-dasharray="11.32 11.32"/>
<path d="M86.3968 105.262H162.564C164.998 105.262 166.97 107.231 166.97 109.662V157.846H81.9907V109.662C81.9907 107.231 83.9626 105.262 86.3968 105.262Z" fill="#495894"/>
<path d="M124.357 136.185C127.114 136.185 129.349 133.953 129.349 131.2C129.349 128.447 127.114 126.215 124.357 126.215C121.6 126.215 119.366 128.447 119.366 131.2C119.366 133.953 121.6 136.185 124.357 136.185Z" fill="white"/>
<path d="M130.735 73.0769C131.567 71.7846 133.015 70.9846 134.556 70.9846C134.679 70.9846 134.802 70.8923 134.802 70.7385C134.802 70.5846 134.71 70.4923 134.556 70.4923C132.83 70.4923 131.259 71.3846 130.335 72.8308C130.181 73.1077 130.581 73.3231 130.735 73.0769Z" fill="#4B4065"/>
<path d="M191.835 85.1385H216.177C219.751 85.1385 222.678 88.0308 222.678 91.6308V112.246C222.678 115.815 219.782 118.738 216.177 118.738H191.835C188.261 118.738 185.334 115.846 185.334 112.246V91.6308C185.334 88.0308 188.23 85.1385 191.835 85.1385Z" fill="#F6A561"/>
<path d="M118.226 46.1846H115.298V43.2615H113.758V46.1846H110.831V47.7231H113.758V50.6462H115.298V47.7231H118.226V46.1846Z" fill="#F6A561"/>
<path d="M170.698 90.7692H178.525L174.611 73.1692L185.334 81.9692V71.4461L192.975 78.2461L199.569 69.3538" stroke="#4B4065" stroke-width="2" stroke-miterlimit="10"/>
<path d="M136.189 78.5231C135.973 78.0308 135.788 77.7231 135.419 77.7231C134.648 77.6615 133.601 80 134.71 82.6769L135.295 84.0615C135.573 83.2 135.788 82.3385 135.912 81.4769C136.066 80.4923 136.158 79.5077 136.189 78.5231Z" fill="#4B4065"/>
<path d="M72.6238 104L76.1056 102.185C76.3213 102.062 76.4137 101.785 76.2904 101.569C76.1672 101.354 75.8899 101.262 75.6742 101.385C75.6742 101.385 75.6434 101.385 75.6434 101.415L72.1308 103.231C71.9151 103.354 71.8227 103.631 71.9768 103.846C72.1308 104.062 72.4081 104.123 72.6238 104Z" fill="#495894"/>
<path d="M152.396 105.262C152.273 104.892 138.592 82.0308 137.699 79.8461C136.805 77.6615 136.744 76.4615 135.973 76.4C135.203 76.3385 134.155 78.6769 135.265 81.3538C136.374 84.0308 137.452 86.6154 137.452 86.6154C137.452 86.6154 136.405 87.3846 136.713 88.4C136.713 88.4 135.111 87.7846 134.556 89.2923C134.402 89.8461 134.463 90.4615 134.772 90.9538C134.772 90.9538 132.676 90.1846 131.844 91.7231C131.228 92.8923 131.321 96.3385 131.382 97.8769C131.413 98.5538 131.721 99.2 132.245 99.6615C132.83 100.154 133.724 100.338 134.679 98.7692L138.099 105.262H152.396Z" fill="#F6A561"/>
<path d="M143.337 92.5231L139.363 86.7385C138.993 86.4308 138.531 86.3385 138.068 86.4615" fill="#F6A561"/>
<path d="M143.337 92.5231L139.363 86.7385C138.993 86.4308 138.531 86.3385 138.068 86.4615" stroke="#495894" stroke-miterlimit="10"/>
<path d="M136.713 88.4308L140.749 95.0154" stroke="#495894" stroke-miterlimit="10"/>
<path d="M134.772 90.9846L138.13 96.8615" stroke="#495894" stroke-miterlimit="10"/>
<path d="M132.861 94.4615L135.172 99.6615" stroke="#495894" stroke-miterlimit="10"/>
<path d="M148.853 99.2615L147.004 91.9692C146.757 91.0461 146.511 90.1231 145.895 89.3846C145.278 88.6461 143.676 88.3385 142.752 89.0769" fill="#F6A561"/>
<path opacity="0.21" d="M118.226 86.5231C120.08 86.5231 121.584 85.0215 121.584 83.1692C121.584 81.3169 120.08 79.8154 118.226 79.8154C116.371 79.8154 114.867 81.3169 114.867 83.1692C114.867 85.0215 116.371 86.5231 118.226 86.5231Z" fill="#ED4F2E"/>
<path d="M32.8456 106.862L33.1845 99.1077L26.6524 103.262L24.7112 99.9384L31.5823 96.4L24.7112 92.8615L26.6524 89.5385L33.1845 93.7846L32.8456 86.0308H36.6663L36.3274 93.7846L42.8595 89.5385L44.8006 92.8615L37.868 96.4L44.8006 99.9384L42.8595 103.262L36.3274 99.0769L36.6663 106.831L32.8456 106.862Z" fill="white"/>
<path d="M199.692 111.569L205.67 118.738L200.309 118.862L199.692 111.569Z" fill="#4B4065"/>
<path d="M199.97 126.615C200.278 126.769 200.678 126.646 200.832 126.338C200.894 126.246 200.925 126.123 200.894 126L200.309 118.892L199.692 111.6C199.662 111.262 199.354 110.985 199.015 111.046C198.922 111.046 198.861 111.077 198.768 111.108L192.359 114.677L186.104 118.154C185.796 118.308 185.673 118.708 185.858 119.015C185.919 119.138 186.012 119.2 186.104 119.262L189.247 120.954L183.793 131.077L191.342 135.108L196.796 124.923L199.97 126.615Z" fill="white" stroke="#F7C689" stroke-width="2" stroke-miterlimit="10"/>
<path d="M22.0306 42.0308C21.7841 36.4923 26.8064 31.2923 32.3834 31.3231C37.9603 31.3538 42.8903 36.6462 42.5513 42.1846C42.3665 45.2 40.148 48.4615 37.1592 48.2769C34.2013 48.0923 32.445 44.7385 32.4142 41.7846C32.3526 34.8615 39.6858 28.8923 46.4645 30.3385" stroke="#4B4065" stroke-width="2" stroke-miterlimit="10"/>
<path d="M171.684 23.0154L172.886 26.1538C173.163 26.9231 173.903 27.4461 174.704 27.4769L178.062 27.6308C179.202 27.6923 180.065 28.6461 180.034 29.7846C180.004 30.3692 179.726 30.9231 179.264 31.2923L176.614 33.4154C175.967 33.9384 175.69 34.7692 175.906 35.5692L176.799 38.8C177.107 39.9077 176.46 41.0154 175.351 41.3231C174.766 41.4769 174.18 41.3846 173.687 41.0461L170.883 39.2C170.205 38.7385 169.312 38.7385 168.634 39.2L165.83 41.0461C164.875 41.6615 163.612 41.4154 162.965 40.4615C162.626 39.9692 162.533 39.3538 162.687 38.8L163.581 35.5692C163.796 34.7692 163.519 33.9384 162.872 33.4154L160.253 31.3231C159.36 30.6154 159.236 29.3231 159.945 28.4308C160.315 27.9692 160.869 27.6923 161.455 27.6615L164.813 27.5077C165.645 27.4769 166.354 26.9538 166.662 26.1538L167.864 23.0154C168.264 21.9692 169.466 21.4154 170.513 21.8154C171.037 22.0308 171.469 22.4615 171.684 23.0154Z" stroke="#F7C689" stroke-miterlimit="10"/>
<path d="M199.446 96.1231V107.446L204.314 104.123L209.152 107.446V96.1231H199.446Z" fill="#495894"/>
</svg>
