<svg width="36" height="30" viewBox="0 0 36 30" fill="none" xmlns="http://www.w3.org/2000/svg">
<path d="M18 11.4C17.2909 11.4 16.5887 11.5397 15.9335 11.811C15.2784 12.0824 14.6831 12.4802 14.1816 12.9816C13.6802 13.483 13.2824 14.0783 13.011 14.7335C12.7397 15.3886 12.6 16.0908 12.6 16.8C12.6 17.5091 12.7397 18.2113 13.011 18.8665C13.2824 19.5216 13.6802 20.1169 14.1816 20.6184C14.6831 21.1198 15.2784 21.5176 15.9335 21.7889C16.5887 22.0603 17.2909 22.2 18 22.2C19.4322 22.2 20.8057 21.6311 21.8184 20.6184C22.8311 19.6057 23.4 18.2321 23.4 16.8C23.4 15.3678 22.8311 13.9943 21.8184 12.9816C20.8057 11.9689 19.4322 11.4 18 11.4ZM32.4 5.99998H28.08C27.7691 5.98579 27.4691 5.88115 27.2168 5.6989C26.9645 5.51664 26.7709 5.26469 26.6598 4.97398L25.542 1.62418C25.4301 1.33379 25.236 1.08228 24.9835 0.900398C24.7309 0.718513 24.4309 0.61412 24.12 0.599976H11.88C11.286 0.599976 10.6452 1.06078 10.4598 1.62238L9.3402 4.97398C9.22887 5.26456 9.03524 5.51638 8.78299 5.69861C8.53075 5.88084 8.23085 5.98557 7.92 5.99998H3.6C1.62 5.99998 0 7.61998 0 9.59998V25.8C0 27.78 1.62 29.4 3.6 29.4H32.4C34.38 29.4 36 27.78 36 25.8V9.59998C36 7.61998 34.38 5.99998 32.4 5.99998ZM18 25.8C15.6131 25.8 13.3239 24.8518 11.636 23.1639C9.94821 21.4761 9 19.1869 9 16.8C9 14.413 9.94821 12.1238 11.636 10.436C13.3239 8.74819 15.6131 7.79998 18 7.79998C20.3869 7.79998 22.6761 8.74819 24.364 10.436C26.0518 12.1238 27 14.413 27 16.8C27 19.1869 26.0518 21.4761 24.364 23.1639C22.6761 24.8518 20.3869 25.8 18 25.8ZM31.5 11.76C31.1658 11.76 30.8453 11.6272 30.609 11.3909C30.3727 11.1546 30.24 10.8341 30.24 10.5C30.24 10.1658 30.3727 9.84532 30.609 9.60902C30.8453 9.37273 31.1658 9.23998 31.5 9.23998C31.8342 9.23998 32.1547 9.37273 32.391 9.60902C32.6272 9.84532 32.76 10.1658 32.76 10.5C32.76 10.8341 32.6272 11.1546 32.391 11.3909C32.1547 11.6272 31.8342 11.76 31.5 11.76Z" fill="#5597DA"/>
</svg>
